<svg width="226px" height="82px" viewBox="0 0 226 82" version="1.1" xmlns="http://www.w3.org/2000/svg">
    <g id="watermark">
        <rect fill="#596E7A" opacity="0.699999988" x="0" y="0" width="226" height="82" rx="16"></rect>
        <path d="M24.16,38 L24.16,32.9 L26.26,32.9 L30.14,38 L33.4,38 L29.42,32.78 C31.66,32.34 32.7,30.68 32.7,28.8 C32.7,26.6 31.26,24.72 28.1,24.72 L21.54,24.72 L21.54,38 L24.16,38 Z M27.92,30.56 L24.16,30.56 L24.16,27.06 L27.92,27.06 C29.28,27.06 30.08,27.74 30.08,28.8 C30.08,29.86 29.28,30.56 27.92,30.56 Z M39.7,38.26 C41.74,38.26 43.66,37.04 44.38,35.12 L41.66,35.12 C41.22,35.7 40.5,35.94 39.7,35.94 C38.46,35.94 37.44,35.22 37.18,34.08 L44.5,34.08 C44.54,33.76 44.54,33.52 44.54,33.2 C44.54,30.4 42.52,28.24 39.6,28.24 C36.66,28.24 34.56,30.4 34.56,33.24 C34.56,36.12 36.74,38.26 39.7,38.26 Z M41.86,32.2 L37.24,32.2 C37.4,31.12 38.46,30.4 39.6,30.4 C40.76,30.4 41.7,31.1 41.86,32.2 Z M51.2,38.26 C53.34,38.26 55.18,36.96 55.88,34.88 L53.32,34.88 C52.86,35.62 52.04,35.94 51.2,35.94 C49.7,35.94 48.66,34.82 48.66,33.24 C48.66,31.66 49.7,30.56 51.2,30.56 C52.04,30.56 52.86,30.88 53.32,31.62 L55.88,31.62 C55.18,29.54 53.34,28.24 51.2,28.24 C48.32,28.24 46.14,30.36 46.14,33.24 C46.14,36.12 48.32,38.26 51.2,38.26 Z M62.56,38.26 C65.5,38.26 67.72,36.12 67.72,33.26 C67.72,30.38 65.5,28.24 62.56,28.24 C59.62,28.24 57.4,30.38 57.4,33.26 C57.4,36.12 59.62,38.26 62.56,38.26 Z M62.56,35.94 C61.06,35.94 59.92,34.84 59.92,33.26 C59.92,31.66 61.06,30.56 62.56,30.56 C64.06,30.56 65.2,31.66 65.2,33.26 C65.2,34.84 64.06,35.94 62.56,35.94 Z M72.38,38 L72.38,33.38 C72.38,31.86 73.24,30.82 74.86,30.82 L76.04,30.82 L76.04,28.42 L74.88,28.42 C73.8,28.42 72.8,28.84 72.38,29.48 L72.38,28.5 L69.86,28.5 L69.86,38 L72.38,38 Z M81.96,38.26 C83.02,38.26 84.1,37.92 84.74,37.28 L84.74,38 L87.26,38 L87.26,24.62 L84.74,24.62 L84.74,29.24 C84.1,28.6 83.02,28.24 81.96,28.24 C78.9,28.24 77.1,30.66 77.1,33.26 C77.1,35.86 78.9,38.26 81.96,38.26 Z M82.16,35.94 C80.66,35.94 79.62,34.72 79.62,33.26 C79.62,31.8 80.66,30.56 82.16,30.56 C83.5,30.56 84.84,31.46 84.84,33.26 C84.84,35.06 83.5,35.94 82.16,35.94 Z M94.54,38.26 C96.58,38.26 98.5,37.04 99.22,35.12 L96.5,35.12 C96.06,35.7 95.34,35.94 94.54,35.94 C93.3,35.94 92.28,35.22 92.02,34.08 L99.34,34.08 C99.38,33.76 99.38,33.52 99.38,33.2 C99.38,30.4 97.36,28.24 94.44,28.24 C91.5,28.24 89.4,30.4 89.4,33.24 C89.4,36.12 91.58,38.26 94.54,38.26 Z M96.7,32.2 L92.08,32.2 C92.24,31.12 93.3,30.4 94.44,30.4 C95.6,30.4 96.54,31.1 96.7,32.2 Z M105.84,38.26 C106.9,38.26 107.98,37.92 108.62,37.28 L108.62,38 L111.14,38 L111.14,24.62 L108.62,24.62 L108.62,29.24 C107.98,28.6 106.9,28.24 105.84,28.24 C102.78,28.24 100.98,30.66 100.98,33.26 C100.98,35.86 102.78,38.26 105.84,38.26 Z M106.04,35.94 C104.54,35.94 103.5,34.72 103.5,33.26 C103.5,31.8 104.54,30.56 106.04,30.56 C107.38,30.56 108.72,31.46 108.72,33.26 C108.72,35.06 107.38,35.94 106.04,35.94 Z M122.44,38.26 C125.38,38.26 127.6,36.12 127.6,33.26 C127.6,30.38 125.38,28.24 122.44,28.24 C119.5,28.24 117.28,30.38 117.28,33.26 C117.28,36.12 119.5,38.26 122.44,38.26 Z M122.44,35.94 C120.94,35.94 119.8,34.84 119.8,33.26 C119.8,31.66 120.94,30.56 122.44,30.56 C123.94,30.56 125.08,31.66 125.08,33.26 C125.08,34.84 123.94,35.94 122.44,35.94 Z M132.26,38 L132.26,33.18 C132.26,31.54 133.36,30.56 134.62,30.56 C136.08,30.56 136.84,31.38 136.84,32.74 L136.84,38 L139.36,38 L139.36,32.28 C139.36,29.76 137.62,28.24 135.14,28.24 C133.86,28.24 132.78,28.64 132.26,29.22 L132.26,28.5 L129.74,28.5 L129.74,38 L132.26,38 Z M25.74,60.26 C28.54,60.26 30.18,58.94 30.18,57.12 C30.18,55.3 28.9,54.42 26.76,54.24 L25.04,54.1 C24.06,54.02 23.52,53.78 23.52,53.26 C23.52,52.68 24.18,52.32 25.26,52.32 C26.4,52.32 27.2,52.62 27.58,53.3 L30.26,53.3 C29.74,51.46 28.16,50.24 25.32,50.24 C22.62,50.24 21,51.54 21,53.38 C21,55.1 22.14,55.98 24.3,56.2 L26.18,56.38 C27.14,56.48 27.66,56.74 27.66,57.28 C27.66,57.88 26.9,58.18 25.94,58.18 C24.62,58.18 23.7,57.82 23.4,57 L20.72,57 C21.18,59.08 22.94,60.26 25.74,60.26 Z M36.66,60.26 C38.8,60.26 40.64,58.96 41.34,56.88 L38.78,56.88 C38.32,57.62 37.5,57.94 36.66,57.94 C35.16,57.94 34.12,56.82 34.12,55.24 C34.12,53.66 35.16,52.56 36.66,52.56 C37.5,52.56 38.32,52.88 38.78,53.62 L41.34,53.62 C40.64,51.54 38.8,50.24 36.66,50.24 C33.78,50.24 31.6,52.36 31.6,55.24 C31.6,58.12 33.78,60.26 36.66,60.26 Z M45.92,60 L45.92,55.38 C45.92,53.86 46.78,52.82 48.4,52.82 L49.58,52.82 L49.58,50.42 L48.42,50.42 C47.34,50.42 46.34,50.84 45.92,51.48 L45.92,50.5 L43.4,50.5 L43.4,60 L45.92,60 Z M55.78,60.26 C57.82,60.26 59.74,59.04 60.46,57.12 L57.74,57.12 C57.3,57.7 56.58,57.94 55.78,57.94 C54.54,57.94 53.52,57.22 53.26,56.08 L60.58,56.08 C60.62,55.76 60.62,55.52 60.62,55.2 C60.62,52.4 58.6,50.24 55.68,50.24 C52.74,50.24 50.64,52.4 50.64,55.24 C50.64,58.12 52.82,60.26 55.78,60.26 Z M57.94,54.2 L53.32,54.2 C53.48,53.12 54.54,52.4 55.68,52.4 C56.84,52.4 57.78,53.1 57.94,54.2 Z M67.36,60.26 C69.4,60.26 71.32,59.04 72.04,57.12 L69.32,57.12 C68.88,57.7 68.16,57.94 67.36,57.94 C66.12,57.94 65.1,57.22 64.84,56.08 L72.16,56.08 C72.2,55.76 72.2,55.52 72.2,55.2 C72.2,52.4 70.18,50.24 67.26,50.24 C64.32,50.24 62.22,52.4 62.22,55.24 C62.22,58.12 64.4,60.26 67.36,60.26 Z M69.52,54.2 L64.9,54.2 C65.06,53.12 66.12,52.4 67.26,52.4 C68.42,52.4 69.36,53.1 69.52,54.2 Z M76.86,60 L76.86,55.18 C76.86,53.54 77.96,52.56 79.22,52.56 C80.68,52.56 81.44,53.38 81.44,54.74 L81.44,60 L83.96,60 L83.96,54.28 C83.96,51.76 82.22,50.24 79.74,50.24 C78.46,50.24 77.38,50.64 76.86,51.22 L76.86,50.5 L74.34,50.5 L74.34,60 L76.86,60 Z M90.98,60.26 C93.12,60.26 94.96,58.96 95.66,56.88 L93.1,56.88 C92.64,57.62 91.82,57.94 90.98,57.94 C89.48,57.94 88.44,56.82 88.44,55.24 C88.44,53.66 89.48,52.56 90.98,52.56 C91.82,52.56 92.64,52.88 93.1,53.62 L95.66,53.62 C94.96,51.54 93.12,50.24 90.98,50.24 C88.1,50.24 85.92,52.36 85.92,55.24 C85.92,58.12 88.1,60.26 90.98,60.26 Z M100.96,60.26 C102.18,60.26 103.36,59.96 104.04,59.28 L104.04,60 L106.56,60 L106.56,54.1 C106.56,51.64 104.62,50.24 101.76,50.24 C99.62,50.24 97.56,51.32 97,53.62 L99.6,53.62 C99.94,52.8 100.76,52.48 101.82,52.48 C103.02,52.48 104.04,52.92 104.04,54.02 L101.7,54.02 C99.48,54.02 97.22,54.64 97.22,57.04 C97.22,59.08 98.64,60.26 100.96,60.26 Z M101.46,58.24 C100.36,58.24 99.74,57.72 99.74,57.06 C99.74,56.28 100.48,55.9 101.7,55.9 L104.04,55.9 L104.04,56.3 C104.04,57.58 102.82,58.24 101.46,58.24 Z M111.58,64.08 L111.58,59.26 C112.22,59.9 113.3,60.26 114.36,60.26 C117.42,60.26 119.22,57.84 119.22,55.24 C119.22,52.64 117.42,50.24 114.36,50.24 C113.3,50.24 112.22,50.58 111.58,51.22 L111.58,50.5 L109.06,50.5 L109.06,64.08 L111.58,64.08 Z M114.16,57.94 C112.82,57.94 111.48,57.04 111.48,55.24 C111.48,53.44 112.82,52.56 114.16,52.56 C115.66,52.56 116.7,53.78 116.7,55.24 C116.7,56.7 115.66,57.94 114.16,57.94 Z M127.6,60 L127.6,57.8 L125.82,57.8 C125.04,57.8 124.72,57.32 124.72,56.62 L124.72,52.7 L127.6,52.7 L127.6,50.5 L124.72,50.5 L124.72,48.36 L122.2,48.36 L122.2,50.5 L120.46,50.5 L120.46,52.7 L122.2,52.7 L122.2,57.02 C122.2,58.78 123.44,60 125.8,60 L127.6,60 Z M133.64,60.26 C134.9,60.26 135.94,59.86 136.46,59.28 L136.46,60 L138.98,60 L138.98,50.5 L136.46,50.5 L136.46,55.32 C136.46,56.96 135.38,57.94 134.16,57.94 C132.74,57.94 132,57.12 132,55.76 L132,50.5 L129.48,50.5 L129.48,56.22 C129.48,58.74 131.2,60.26 133.64,60.26 Z M144.18,60 L144.18,55.38 C144.18,53.86 145.04,52.82 146.66,52.82 L147.84,52.82 L147.84,50.42 L146.68,50.42 C145.6,50.42 144.6,50.84 144.18,51.48 L144.18,50.5 L141.66,50.5 L141.66,60 L144.18,60 Z M154.04,60.26 C156.08,60.26 158,59.04 158.72,57.12 L156,57.12 C155.56,57.7 154.84,57.94 154.04,57.94 C152.8,57.94 151.78,57.22 151.52,56.08 L158.84,56.08 C158.88,55.76 158.88,55.52 158.88,55.2 C158.88,52.4 156.86,50.24 153.94,50.24 C151,50.24 148.9,52.4 148.9,55.24 C148.9,58.12 151.08,60.26 154.04,60.26 Z M156.2,54.2 L151.58,54.2 C151.74,53.12 152.8,52.4 153.94,52.4 C155.1,52.4 156.04,53.1 156.2,54.2 Z M163.48,60 L163.48,57.02 L160.5,57.02 L160.5,60 L163.48,60 Z M169.88,60.26 C172.02,60.26 173.86,58.96 174.56,56.88 L172,56.88 C171.54,57.62 170.72,57.94 169.88,57.94 C168.38,57.94 167.34,56.82 167.34,55.24 C167.34,53.66 168.38,52.56 169.88,52.56 C170.72,52.56 171.54,52.88 172,53.62 L174.56,53.62 C173.86,51.54 172.02,50.24 169.88,50.24 C167,50.24 164.82,52.36 164.82,55.24 C164.82,58.12 167,60.26 169.88,60.26 Z M181.24,60.26 C184.18,60.26 186.4,58.12 186.4,55.26 C186.4,52.38 184.18,50.24 181.24,50.24 C178.3,50.24 176.08,52.38 176.08,55.26 C176.08,58.12 178.3,60.26 181.24,60.26 Z M181.24,57.94 C179.74,57.94 178.6,56.84 178.6,55.26 C178.6,53.66 179.74,52.56 181.24,52.56 C182.74,52.56 183.88,53.66 183.88,55.26 C183.88,56.84 182.74,57.94 181.24,57.94 Z M191.06,60 L191.06,55.2 C191.06,53.62 192.04,52.56 193.3,52.56 C194.7,52.56 195.38,53.36 195.38,54.76 L195.38,60 L197.9,60 L197.9,55.2 C197.9,53.62 198.88,52.56 200.14,52.56 C201.54,52.56 202.22,53.36 202.22,54.76 L202.22,60 L204.74,60 L204.74,54.3 C204.74,51.78 203,50.24 200.58,50.24 C199,50.24 197.82,50.88 197.18,51.68 C196.46,50.66 195.28,50.24 193.78,50.24 C192.62,50.24 191.58,50.68 191.06,51.22 L191.06,50.5 L188.54,50.5 L188.54,60 L191.06,60 Z" fill="#FFFFFF"></path>
    </g>
</svg>